<?xml version="1.0" encoding="UTF-8" standalone="no"?>
<!-- Created with Inkscape (http://www.inkscape.org/) -->

<svg
   width="100mm"
   height="100mm"
   viewBox="0 0 100 100"
   version="1.1"
   id="svg5"
   inkscape:version="1.1 (c4e8f9e, 2021-05-24)"
   sodipodi:docname="0704 logo.svg"
   xmlns:inkscape="http://www.inkscape.org/namespaces/inkscape"
   xmlns:sodipodi="http://sodipodi.sourceforge.net/DTD/sodipodi-0.dtd"
   xmlns="http://www.w3.org/2000/svg"
   xmlns:svg="http://www.w3.org/2000/svg">
  <sodipodi:namedview
     id="namedview7"
     pagecolor="#ffffff"
     bordercolor="#666666"
     borderopacity="1.0"
     inkscape:pageshadow="2"
     inkscape:pageopacity="0.0"
     inkscape:pagecheckerboard="0"
     inkscape:document-units="mm"
     showgrid="false"
     fit-margin-top="0"
     fit-margin-left="0"
     fit-margin-right="0"
     fit-margin-bottom="0"
     inkscape:zoom="0.39883859"
     inkscape:cx="26.326439"
     inkscape:cy="201.83603"
     inkscape:window-width="1332"
     inkscape:window-height="847"
     inkscape:window-x="44"
     inkscape:window-y="25"
     inkscape:window-maximized="0"
     inkscape:current-layer="layer2" />
  <defs
     id="defs2" />
  <g
     inkscape:groupmode="layer"
     id="layer2"
     inkscape:label="圖層 2"
     style="display:inline"
     transform="translate(-71.217964,-92.278603)">
    <path
       id="path931"
       style="fill:#660080;fill-opacity:1;stroke:none;stroke-width:0.376005;stroke-linecap:butt;stroke-linejoin:miter;stroke-miterlimit:4;stroke-dasharray:none;stroke-opacity:1"
       d="m 116.22941,100.3869 -35.334015,41.11121 5.926811,-1.62975 -0.947239,3.14193 2.619241,0.47459 11.993032,-13.57128 -8.880741,12.11593 1.43252,2.1087 12.011491,-14.39076 c -1.76418,-1.26307 -2.81146,-3.29902 -2.81306,-5.46873 -1.4e-4,-3.71797 3.01376,-6.73209 6.73172,-6.73221 1.61991,2.1e-4 3.1854,0.58454 4.40929,1.64577 l 7.33893,-8.30657 -2.44291,-2.90731 -6.05263,6.65206 -1.01768,-0.57174 8.19291,-9.77747 z m 28.12527,7.71686 -9.04688,1.52286 v 20.35839 l -15.25689,1.99989 v 8.1176 l 24.30377,-3.51742 z m -18.55086,6.60007 a 6.7319452,6.7319452 0 0 0 -6.73172,6.73172 6.7319452,6.7319452 0 0 0 6.73172,6.73221 6.7319452,6.7319452 0 0 0 6.73221,-6.73221 6.7319452,6.7319452 0 0 0 -6.73221,-6.73172 z m 1.69775,3.14776 a 2.4899383,2.4899383 0 0 1 2.49003,2.48953 2.4899383,2.4899383 0 0 1 -2.49003,2.49004 2.4899383,2.4899383 0 0 1 -2.49003,-2.49004 2.4899383,2.4899383 0 0 1 2.49003,-2.48953 z m 25.69693,0.72039 a 6.7319452,6.7319452 0 0 0 -6.73172,6.73221 6.7319452,6.7319452 0 0 0 6.73172,6.73171 6.7319452,6.7319452 0 0 0 6.7322,-6.73171 6.7319452,6.7319452 0 0 0 -6.7322,-6.73221 z m -44.22933,2.07518 a 3.6311602,3.6311602 0 0 0 -3.63108,3.63158 3.6311602,3.6311602 0 0 0 3.63108,3.63108 3.6311602,3.6311602 0 0 0 3.63109,-3.63108 3.6311602,3.6311602 0 0 0 -3.63109,-3.63158 z m 45.67156,2.01641 a 2.4899383,2.4899383 0 0 1 2.49003,2.49003 2.4899383,2.4899383 0 0 1 -2.49003,2.49002 2.4899383,2.4899383 0 0 1 -2.49002,-2.49002 2.4899383,2.4899383 0 0 1 2.49002,-2.49003 z m -38.67558,2.01106 -0.3002,0.26231 c -0.33856,3.44486 -3.23433,6.07152 -6.69578,6.07352 -0.0831,-0.002 -0.16619,-0.005 -0.24919,-0.009 l -2.12669,1.85708 v 44.40468 l 3.82783,0.76167 -0.13504,6.14541 h 5.67907 z m 27.39468,13.99196 -9.04688,1.31982 v 7.0363 c 0.75918,-0.28747 1.56409,-0.43526 2.37588,-0.43623 3.71796,-1.4e-4 6.73208,3.01376 6.7322,6.73173 1.5e-4,3.71815 -3.01405,6.73236 -6.7322,6.73221 -0.81179,-9.4e-4 -1.6167,-0.14875 -2.37588,-0.43622 v 24.55587 h 5.23411 v -6.14541 l 3.81277,-0.76167 v -19.12211 l 14.0964,-3.01417 v -7.79118 l 3.93079,-0.70581 0.15351,-4.68568 -9.64582,1.64285 0.10735,3.36733 -8.64223,1.84541 z m -11.15558,9.63562 -12.15334,2.36032 v 8.87978 l 11.10215,-2.39628 c -0.77827,-1.12481 -1.19543,-2.46001 -1.19595,-3.82782 9.4e-4,-1.91556 0.81856,-3.73986 2.24714,-5.016 z m 4.48458,1.38491 a 3.6311602,3.6311602 0 0 0 -3.6311,3.63109 3.6311602,3.6311602 0 0 0 3.6311,3.63109 3.6311602,3.6311602 0 0 0 3.63157,-3.63109 3.6311602,3.6311602 0 0 0 -3.63157,-3.63109 z" />
  </g>
</svg>
