<?xml version="1.0" encoding="UTF-8" standalone="no"?>
<!-- Created with Inkscape (http://www.inkscape.org/) -->

<svg
   width="181.57353mm"
   height="175.47519mm"
   viewBox="0 0 181.57353 175.47519"
   version="1.1"
   id="svg6212"
   inkscape:version="1.1 (c4e8f9e, 2021-05-24)"
   sodipodi:docname="0704-3 logo.svg"
   xmlns:inkscape="http://www.inkscape.org/namespaces/inkscape"
   xmlns:sodipodi="http://sodipodi.sourceforge.net/DTD/sodipodi-0.dtd"
   xmlns="http://www.w3.org/2000/svg"
   xmlns:svg="http://www.w3.org/2000/svg">
  <sodipodi:namedview
     id="namedview6214"
     pagecolor="#ffffff"
     bordercolor="#666666"
     borderopacity="1.0"
     inkscape:pageshadow="2"
     inkscape:pageopacity="0.0"
     inkscape:pagecheckerboard="0"
     inkscape:document-units="mm"
     showgrid="false"
     fit-margin-top="0"
     fit-margin-left="0"
     fit-margin-right="0"
     fit-margin-bottom="0"
     inkscape:zoom="0.27028739"
     inkscape:cx="-5.5496485"
     inkscape:cy="57.346368"
     inkscape:window-width="1332"
     inkscape:window-height="847"
     inkscape:window-x="43"
     inkscape:window-y="25"
     inkscape:window-maximized="0"
     inkscape:current-layer="layer3" />
  <defs
     id="defs6209" />
  <g
     inkscape:groupmode="layer"
     id="layer3"
     inkscape:label="圖層 2"
     style="display:inline"
     transform="translate(-11.174163,-22.930913)">
    <path
       style="fill:none;stroke:#000000;stroke-width:2.86696;stroke-linecap:butt;stroke-linejoin:round;stroke-miterlimit:4;stroke-dasharray:none;stroke-opacity:1"
       d="m 137.52082,39.39973 c -1.10101,29.574966 7.04541,44.128056 -40.13485,42.989036"
       id="path6353"
       sodipodi:nodetypes="cc" />
    <path
       style="fill:none;stroke:#000000;stroke-width:2.86696;stroke-linecap:butt;stroke-linejoin:round;stroke-miterlimit:4;stroke-dasharray:none;stroke-opacity:1"
       d="m 176.30214,82.388766 c -28.25828,0.31862 -39.67247,-5.43629 -38.78132,21.497754 0,0 -8.7073,-0.28043 -8.4282,7.25895 0.2791,7.53938 8.4282,6.14219 8.4282,6.14219 v 65.27659"
       id="path6355"
       sodipodi:nodetypes="cczcc" />
    <path
       style="fill:none;stroke:#000000;stroke-width:2.86696;stroke-linecap:butt;stroke-linejoin:round;stroke-miterlimit:4;stroke-dasharray:none;stroke-opacity:1"
       d="M 83.579355,111.25083 H 191.27297"
       id="path6357"
       sodipodi:nodetypes="cc" />
    <path
       style="fill:none;stroke:#000000;stroke-width:2.86696;stroke-linecap:butt;stroke-linejoin:miter;stroke-miterlimit:4;stroke-dasharray:none;stroke-opacity:1"
       d="m 82.610287,101.84987 v 18.80191 h 14.190122 l 10.941751,-9.40095 -10.941751,-9.40096 z"
       id="path8644"
       sodipodi:nodetypes="cccccc" />
    <circle
       style="fill:none;fill-opacity:1;stroke:#000000;stroke-width:2.86696;stroke-linecap:round;stroke-linejoin:round;stroke-miterlimit:4;stroke-dasharray:none;stroke-opacity:1"
       id="path9043"
       cx="137.8537"
       cy="32.168961"
       r="7.8045673" />
    <circle
       style="fill:none;fill-opacity:1;stroke:#000000;stroke-width:2.86696;stroke-linecap:round;stroke-linejoin:round;stroke-miterlimit:4;stroke-dasharray:none;stroke-opacity:1"
       id="circle9169"
       cx="90.414856"
       cy="82.336281"
       r="7.8045673" />
    <circle
       style="fill:none;fill-opacity:1;stroke:#000000;stroke-width:2.86696;stroke-linecap:round;stroke-linejoin:round;stroke-miterlimit:4;stroke-dasharray:none;stroke-opacity:1"
       id="circle9171"
       cx="183.50964"
       cy="82.336281"
       r="7.8045673" />
    <path
       style="fill:none;stroke:#000000;stroke-width:2.86696;stroke-linecap:butt;stroke-linejoin:miter;stroke-miterlimit:4;stroke-dasharray:none;stroke-opacity:1"
       d="m 191.27297,101.84987 v 18.80191 h -14.19012 l -10.94174,-9.40095 10.94174,-9.40096 z"
       id="path9622"
       sodipodi:nodetypes="cccccc" />
    <path
       style="fill:#000000;fill-opacity:1;stroke:none;stroke-width:0.126425px;stroke-linecap:butt;stroke-linejoin:miter;stroke-opacity:1"
       d="m 91.357467,46.692179 c 0.07869,5.97394 26.949683,21.189647 30.390073,18.571707 3.44038,-2.61794 -7.32161,-34.536568 -14.77296,-34.610912 -7.451338,-0.07434 2.43433,11.63922 -0.82981,15.001936 -3.26414,3.362716 -14.865993,-4.936671 -14.787303,1.037269 z"
       id="path10098"
       sodipodi:nodetypes="zzzzz" />
    <rect
       style="fill:#000000;fill-opacity:1;stroke:none;stroke-width:2.27504;stroke-linecap:round;stroke-linejoin:round;stroke-miterlimit:4;stroke-dasharray:none;stroke-opacity:1"
       id="rect10257"
       width="4.0192747"
       height="26.12528"
       x="107.78047"
       y="113.50203"
       transform="rotate(-30)"
       rx="2.0096374"
       ry="2.0096374" />
    <rect
       style="fill:#000000;fill-opacity:1;stroke:none;stroke-width:2.27504;stroke-linecap:round;stroke-linejoin:round;stroke-miterlimit:4;stroke-dasharray:none;stroke-opacity:1"
       id="rect10259"
       width="7.536139"
       height="35.671062"
       x="117.82864"
       y="108.72914"
       transform="rotate(-30)"
       rx="3.7680695"
       ry="3.7680695" />
    <rect
       style="fill:#000000;fill-opacity:1;stroke:none;stroke-width:2.27504;stroke-linecap:round;stroke-linejoin:round;stroke-miterlimit:4;stroke-dasharray:none;stroke-opacity:1"
       id="rect10261"
       width="8.0385494"
       height="42.202377"
       x="129.38406"
       y="105.46347"
       transform="rotate(-30)"
       rx="4.0192747"
       ry="4.0192747" />
    <circle
       style="fill:none;fill-opacity:1;stroke:#000000;stroke-width:2.86696;stroke-linecap:round;stroke-linejoin:round;stroke-miterlimit:4;stroke-dasharray:none;stroke-opacity:1"
       id="circle10442"
       cx="137.8537"
       cy="189.16806"
       r="7.8045673" />
    <path
       style="fill:none;stroke:#000000;stroke-width:2.86696;stroke-linecap:butt;stroke-linejoin:miter;stroke-miterlimit:4;stroke-dasharray:none;stroke-opacity:1"
       d="m 48.323542,66.193056 v 16.9616 c 0.259159,7.15496 -12.551274,-0.45707 -12.50997,7.14173 0.04131,7.5988 24.506294,-1.25579 25.019939,6.71377 0.552115,8.566444 -24.844016,-1.59436 -25.019939,6.713764 -0.175922,8.30813 24.795065,-0.92748 25.019939,6.71377 0.224873,7.64126 -25.019939,-0.7313 -25.019939,6.71377 0,7.4451 25.019939,-1.3788 25.019939,6.71376 0,8.09257 -25.019939,-0.72621 -25.019939,6.71377 0,7.43997 24.848285,-2.09714 25.019939,6.71377 0.171654,8.81091 -24.856165,-1.92807 -25.019939,6.71376 -0.163773,8.64184 23.833566,-1.44648 25.019939,6.71377 1.186373,8.16025 -25.019939,-1.84511 -25.019939,6.71377 0,8.55889 12.50997,-0.7261 12.50997,8.97077 v 15.39501"
       id="path10477"
       sodipodi:nodetypes="cczszzzzzzzzzsc" />
    <circle
       style="fill:none;fill-opacity:1;stroke:#000000;stroke-width:2.86696;stroke-linecap:round;stroke-linejoin:round;stroke-miterlimit:4;stroke-dasharray:none;stroke-opacity:1"
       id="circle11376"
       cx="48.164433"
       cy="189.16806"
       r="7.8045673" />
    <circle
       style="fill:none;fill-opacity:1;stroke:#000000;stroke-width:2.86696;stroke-linecap:round;stroke-linejoin:round;stroke-miterlimit:4;stroke-dasharray:none;stroke-opacity:1"
       id="circle12402"
       cx="76.111603"
       cy="57.894836"
       r="7.8045673" />
    <path
       style="fill:none;stroke:#000000;stroke-width:2.86696;stroke-linecap:butt;stroke-linejoin:round;stroke-miterlimit:4;stroke-dasharray:none;stroke-opacity:1"
       d="M 26.85623,71.148306 69.384374,59.162296"
       id="path12404"
       sodipodi:nodetypes="cc" />
    <circle
       style="fill:none;fill-opacity:1;stroke:#000000;stroke-width:2.86696;stroke-linecap:round;stroke-linejoin:round;stroke-miterlimit:4;stroke-dasharray:none;stroke-opacity:1"
       id="circle12406"
       cx="20.41221"
       cy="72.685684"
       r="7.8045673" />
  </g>
</svg>
