<?xml version="1.0" encoding="UTF-8" standalone="no"?>
<!-- Created with Inkscape (http://www.inkscape.org/) -->

<svg
   width="90mm"
   height="80.000008mm"
   viewBox="0 0 90 80.000008"
   version="1.1"
   id="svg5"
   inkscape:version="1.1 (c4e8f9e, 2021-05-24)"
   sodipodi:docname="0711-logo.svg"
   xmlns:inkscape="http://www.inkscape.org/namespaces/inkscape"
   xmlns:sodipodi="http://sodipodi.sourceforge.net/DTD/sodipodi-0.dtd"
   xmlns="http://www.w3.org/2000/svg"
   xmlns:svg="http://www.w3.org/2000/svg">
  <sodipodi:namedview
     id="namedview7"
     pagecolor="#ffffff"
     bordercolor="#666666"
     borderopacity="1.0"
     inkscape:pageshadow="2"
     inkscape:pageopacity="0.0"
     inkscape:pagecheckerboard="0"
     inkscape:document-units="mm"
     showgrid="false"
     fit-margin-top="0"
     fit-margin-left="0"
     fit-margin-right="0"
     fit-margin-bottom="0"
     inkscape:zoom="0.78615037"
     inkscape:cx="397.50665"
     inkscape:cy="199.07133"
     inkscape:window-width="1332"
     inkscape:window-height="847"
     inkscape:window-x="49"
     inkscape:window-y="25"
     inkscape:window-maximized="0"
     inkscape:current-layer="layer2" />
  <defs
     id="defs2" />
  <g
     inkscape:groupmode="layer"
     id="layer2"
     inkscape:label="圖層 2"
     style="opacity:1"
     transform="translate(-54.973389,-80.942346)">
    <path
       id="path907"
       style="fill:#ff1493;stroke:none;stroke-width:0.251826px;stroke-linecap:butt;stroke-linejoin:miter;stroke-opacity:1"
       d="m 127.93571,80.942346 c -1.75296,4.172802 -3.46587,8.345441 -6.30623,12.518241 -0.10539,-0.06406 -1.16802,-8.871751 -1.66065,-9.516663 -0.49263,-0.644911 -9.27292,-1.120454 -10.43724,0 -1.16433,1.120455 1.54217,14.383251 1.54217,14.383251 -0.64499,1.176214 -9.09537,-9.139769 -10.43724,-9.732707 -1.341859,-0.592934 -6.924122,5.819669 -6.760539,7.029361 0.163584,1.209693 6.180359,4.834561 10.081319,9.840721 0,0 -12.916343,0.65028 -13.283626,1.94674 -0.367282,1.29645 -0.793101,8.77367 1.405161,9.52182 2.198262,0.74814 15.792105,-1.62736 15.792105,-1.62736 v 2.81184 c 0,0 -15.126633,0.43745 -17.495502,1.94626 -2.368872,1.5088 -3.971679,13.69755 -1.472641,17.70936 1.137688,1.5869 13.202903,-3.56552 19.708843,-3.90613 -1.77288,8.68482 -5.02216,16.29248 -7.8278,24.22397 -0.2535,0.97541 -0.32225,2.09411 1.40876,2.48214 1.73101,0.38802 19.30109,0.21241 21.09701,-1.14502 1.79592,-1.35743 3.25222,-18.10109 3.78127,-24.36394 5.16488,-0.31387 7.98051,-0.93355 12.94572,-1.24741 2.27905,-0.24456 3.73004,-3.3434 4.38495,-7.04767 0.55835,-3.15812 1.48177,-6.66089 -1.66064,-7.3539 -3.14242,-0.693 -18.61696,-0.60646 -18.73945,-1.94672 l 1.42319,-5.62321 c 6.67649,0.0581 12.30563,0.51297 13.75802,-0.86511 1.59251,-3.08983 2.4492,-6.22443 0.71185,-9.51667 l -8.57004,0.13809 c 0.99548,-0.44053 8.8668,-11.383456 7.38379,-14.629356 -0.55486,-1.214452 -10.77256,-6.029928 -10.77256,-6.029928 z M 80.3549,86.539719 c -1.659139,-0.07052 -10.314392,13.249252 -12.334829,15.139861 -1.993411,1.86534 -13.046682,12.112 -13.046682,12.112 2.594868,2.1893 4.690726,6.29062 6.167673,12.76105 l 5.721605,-5.12772 3.529387,39.51744 c 5.450424,-0.93235 9.877786,-0.93193 13.995477,-0.64908 -2.998967,-15.78895 -4.184279,-31.57786 -5.693276,-47.36681 0,0 4.105567,-5.08742 5.930217,-7.13737 1.737526,-1.95207 4.726922,-9.301777 4.270084,-11.030839 C 88.43772,93.029187 82.014041,86.610254 80.3549,86.539719 Z m 30.36294,13.409652 0.71133,4.325539 -4.98142,0.64907 c 0.20052,-2.02984 2.21309,-3.50902 4.27009,-4.974609 z" />
    <path
       id="path909"
       style="fill:#ffc0cb;stroke:none;stroke-width:0.251826px;stroke-linecap:butt;stroke-linejoin:miter;stroke-opacity:1"
       d="m 128.82887,83.235682 c -3.95041,6.906858 -6.50093,11.899178 -6.87695,13.91735 2.38814,1.792552 3.69764,3.210578 6.03839,2.600019 2.43873,0.360799 8.27179,-10.355508 7.89167,-11.496736 -1.6916,-2.604852 -4.46756,-3.440039 -7.05311,-5.020633 z m -12.72475,1.866418 -5.14934,0.572512 c 0.54821,0.642809 0.62205,4.490888 1.17028,9.615289 0.32154,3.00563 1.11761,6.592009 1.43916,9.850129 -6.30659,2.07915 -14.074001,1.93819 -21.224234,2.73527 -0.38497,2.93949 -0.381107,5.24067 0.349745,6.34883 2.498973,0.62243 11.291209,-1.23905 17.162759,-1.88286 0.15006,-0.5277 -0.13233,3.28195 -0.41928,7.13739 -5.67182,0.13803 -11.440498,-0.31008 -18.285139,1.9331 -1.928951,3.48178 -1.840278,8.85375 -1.235184,13.58907 7.014044,-2.45171 18.535113,-6.00323 20.330553,-5.20381 1.27766,2.43904 -5.23141,19.39623 -7.59086,27.90093 0,0 4.98157,-1.29765 7.59086,-1.73022 2.60931,-0.43258 8.7766,0 8.7766,0 l 3.51496,-22.94839 c 2.03346,-3.21292 10.78214,-1.71582 16.17327,-2.57372 0.28001,-3.22064 -0.0998,-4.63461 1.61996,-10.39492 -6.7603,-0.15318 -10.86389,0.0158 -19.34674,-1.63488 -0.0592,-3.64676 0.32748,-7.25055 1.83372,-10.08166 l 14.23293,0.48281 c 0.89677,-2.48537 0.66489,-4.14743 0.4744,-5.83972 -5.44798,0.0836 -10.8222,0.0808 -17.79065,1.94673 -0.90084,-6.753578 -0.48223,-13.81256 -3.62777,-19.82188 z m -35.051788,4.29924 c -11.889631,15.48168 -15.246276,16.24368 -22.995107,24.1742 1.622268,2.48608 2.431746,4.87226 3.613347,7.76014 1.774595,-2.29516 3.562952,-4.15086 6.181579,-5.29163 l 4.116591,42.78577 c 3.247686,-0.29371 6.365894,-0.46947 9.390068,-0.55936 L 78.694255,139.52972 76.322271,111.6288 c 5.118278,-5.64277 9.189249,-10.16665 10.200302,-17.086591 -2.584971,-1.158032 -3.962509,-3.197055 -5.470241,-5.140869 z m 19.262258,0.869337 c -2.814768,1.682316 -4.111371,3.365085 -4.696581,5.047404 l 8.722001,7.952709 c 1.59061,-1.7281 3.0483,-3.21414 4.19334,-4.129695 z" />
  </g>
</svg>
