<?xml version="1.0" encoding="UTF-8" standalone="no"?>
<!-- Created with Inkscape (http://www.inkscape.org/) -->

<svg
   width="250.61836mm"
   height="163.00659mm"
   viewBox="0 0 250.61837 163.0066"
   version="1.1"
   id="svg5"
   inkscape:version="1.1 (c4e8f9e, 2021-05-24)"
   sodipodi:docname="0806.svg"
   xmlns:inkscape="http://www.inkscape.org/namespaces/inkscape"
   xmlns:sodipodi="http://sodipodi.sourceforge.net/DTD/sodipodi-0.dtd"
   xmlns="http://www.w3.org/2000/svg"
   xmlns:svg="http://www.w3.org/2000/svg">
  <sodipodi:namedview
     id="namedview7"
     pagecolor="#ffffff"
     bordercolor="#666666"
     borderopacity="1.0"
     inkscape:pageshadow="2"
     inkscape:pageopacity="0.0"
     inkscape:pagecheckerboard="0"
     inkscape:document-units="mm"
     showgrid="false"
     inkscape:zoom="0.45624798"
     inkscape:cx="467.94728"
     inkscape:cy="329.86447"
     inkscape:window-width="1332"
     inkscape:window-height="847"
     inkscape:window-x="49"
     inkscape:window-y="25"
     inkscape:window-maximized="0"
     inkscape:current-layer="layer1"
     fit-margin-top="0"
     fit-margin-left="0"
     fit-margin-right="0"
     fit-margin-bottom="0"
     showborder="true" />
  <defs
     id="defs2" />
  <g
     inkscape:label="圖層 1"
     inkscape:groupmode="layer"
     id="layer1"
     transform="translate(-906.84584,134.06716)">
    <path
       id="path2109"
       style="fill:#000000;fill-opacity:1;stroke:none;stroke-width:4.80917;stroke-linecap:round;stroke-linejoin:round"
       d="m 996.19704,-134.06716 a 24.98798,24.98798 0 0 0 -20.9,11.31663 24.98798,24.98798 0 0 0 -11.282,-2.69338 24.98798,24.98798 0 0 0 -20.9001,11.31662 24.98798,24.98798 0 0 0 -11.282,-2.69337 24.98798,24.98798 0 0 0 -7.3654,1.11052 24.98798,24.98798 0 0 0 -17.6217,23.877096 24.98798,24.98798 0 0 0 13.0494,21.89995 v 86.829328 c 0,6.620036 5.425,12.04319 12.0452,12.043193 6.62,-1.1e-5 12.0427,-5.423077 12.0427,-12.043193 v -86.958518 a 24.98798,24.98798 0 0 0 8.0961,-7.20627 V 8.2735054 c 0,6.6200336 5.4226,12.0426746 12.0427,12.0426746 6.62,0 12.0432,-5.422519 12.0432,-12.0426746 V -78.685524 a 24.98798,24.98798 0 0 0 8.0956,-7.20525 v 85.54103339 c 0,6.62003501 5.4226,12.04267561 12.0427,12.04267561 6.61996,2e-6 12.04336,-5.4224896 12.04316,-12.04267561 V -87.299994 a 24.98798,24.98798 0 0 0 12.8385,-21.779026 24.98798,24.98798 0 0 0 -24.98806,-24.98814 z m 0.1064,19.15491 c 3.3998,0 6.04306,2.64315 6.04306,6.04304 V -0.34974061 c 10e-5,3.39974101 -2.64316,6.04304201 -6.04306,6.04304201 -3.3997,0 -6.043,-2.64315 -6.043,-6.04304201 V -108.86921 c 0,-2.86875 1.9164,-5.18618 4.5217,-5.85339 0.4825,-0.1236 0.9904,-0.18965 1.5213,-0.18965 z m -32.1815,8.62324 c 3.3999,-10e-6 6.0431,2.64265 6.0431,6.04253 V 8.2735054 c 0,3.3997736 -2.6433,6.0425256 -6.0431,6.0425256 -3.3998,0 -6.043,-2.642633 -6.043,-6.0425256 V -100.24648 c 0,-2.86853 1.9165,-5.18617 4.5217,-5.85339 0.4827,-0.12361 0.9902,-0.18914 1.5213,-0.18914 z m -32.1815,8.622726 c 3.3998,0 6.0431,2.64316 6.0431,6.04304 V 16.896234 c 0,3.399814 -2.6432,6.043038 -6.0431,6.043044 -3.3998,-3e-6 -6.0451,-2.643151 -6.0451,-6.043044 V -91.623244 c 0,-2.86851 1.9185,-5.18617 4.5238,-5.85338 0.4827,-0.12362 0.9902,-0.18966 1.5213,-0.18966 z" />
    <path
       id="path14208"
       style="fill:#ffa500;fill-opacity:1;stroke:none;stroke-width:4.80917;stroke-linecap:round;stroke-linejoin:round"
       d="m 1132.4762,-134.06716 a 24.98798,24.98798 0 0 0 -20.9,11.31663 24.98798,24.98798 0 0 0 -11.282,-2.69338 24.98798,24.98798 0 0 0 -20.9001,11.31662 24.98798,24.98798 0 0 0 -11.282,-2.69337 24.98798,24.98798 0 0 0 -7.3654,1.11052 24.98798,24.98798 0 0 0 -17.6217,23.877096 24.98798,24.98798 0 0 0 13.0494,21.89995 v 86.829328 c 0,6.620036 5.425,12.04319 12.0452,12.043193 6.62,-1.1e-5 12.0427,-5.423077 12.0427,-12.043193 v -86.958518 a 24.98798,24.98798 0 0 0 8.0961,-7.20627 V 8.2735054 c 0,6.6200336 5.4226,12.0426746 12.0427,12.0426746 6.62,0 12.0432,-5.422519 12.0432,-12.0426746 V -78.685524 a 24.98798,24.98798 0 0 0 8.0956,-7.20525 v 85.54103339 c 0,6.62003501 5.4226,12.04267561 12.0427,12.04267561 6.6199,2e-6 12.0433,-5.4224896 12.0431,-12.04267561 V -87.299994 a 24.98798,24.98798 0 0 0 12.8385,-21.779026 24.98798,24.98798 0 0 0 -24.988,-24.98814 z m 0.1064,19.15491 c 3.3998,0 6.043,2.64315 6.043,6.04304 V -0.34974061 c 10e-5,3.39974101 -2.6431,6.04304201 -6.043,6.04304201 -3.3997,0 -6.043,-2.64315 -6.043,-6.04304201 V -108.86921 c 0,-2.86875 1.9164,-5.18618 4.5217,-5.85339 0.4825,-0.1236 0.9904,-0.18965 1.5213,-0.18965 z m -32.1815,8.62324 c 3.3999,-10e-6 6.0431,2.64265 6.0431,6.04253 V 8.2735054 c 0,3.3997736 -2.6433,6.0425256 -6.0431,6.0425256 -3.3998,0 -6.043,-2.642633 -6.043,-6.0425256 V -100.24648 c 0,-2.86853 1.9165,-5.18617 4.5217,-5.85339 0.4827,-0.12361 0.9902,-0.18914 1.5213,-0.18914 z m -32.1815,8.622726 c 3.3998,0 6.0431,2.64316 6.0431,6.04304 V 16.896234 c 0,3.399814 -2.6432,6.043038 -6.0431,6.043044 -3.3998,-3e-6 -6.0451,-2.643151 -6.0451,-6.043044 V -91.623244 c 0,-2.86851 1.9185,-5.18617 4.5238,-5.85338 0.4827,-0.12362 0.9902,-0.18966 1.5213,-0.18966 z" />
  </g>
</svg>
